<svg fill="#FFFFFF" xmlns="http://www.w3.org/2000/svg"  viewBox="0 0 48 48" width="48px" height="48px"><path d="M 13.5 6 C 9.3754991 6 6 9.3754991 6 13.5 L 6 16.064453 A 1.50015 1.50015 0 1 0 9 16.064453 L 9 13.5 C 9 10.996501 10.996501 9 13.5 9 L 34.5 9 C 34.864806 9 35.214068 9.0526342 35.552734 9.1328125 L 33.621094 13 L 14.5 13 A 1.50015 1.50015 0 1 0 14.5 16 L 32.121094 16 L 30.619141 19.003906 A 1.50015 1.50015 0 0 0 30.5 19 L 14.5 19 A 1.50015 1.50015 0 1 0 14.5 22 L 29.121094 22 L 27.621094 25 L 14.5 25 A 1.50015 1.50015 0 1 0 14.5 28 L 27.111328 28 C 27.212338 28.682535 27.437151 29.332618 27.824219 29.914062 L 26.597656 31.626953 A 1.50015 1.50015 0 0 0 26.417969 31.951172 C 26.042339 31.93886 26.015257 31.895888 25.558594 31.439453 C 25.058344 30.939453 23.998297 30 22.498047 30 C 20.997797 30 19.93775 30.939453 19.4375 31.439453 C 18.93725 31.939453 18.996844 32 18.496094 32 C 17.997594 32 18.058094 31.93945 17.558594 31.439453 C 17.059094 30.939453 15.999501 30 14.5 30 A 1.50015 1.50015 0 1 0 14.5 33 C 14.998499 33 14.938 33.06055 15.4375 33.560547 C 15.937 34.060547 16.996593 35 18.496094 35 C 19.996344 35 21.056391 34.060547 21.556641 33.560547 C 22.056891 33.060547 21.997297 33 22.498047 33 C 22.998797 33 22.939203 33.06055 23.439453 33.560547 C 23.939703 34.060547 24.99975 35 26.5 35 A 1.50015 1.50015 0 0 0 27.929688 34.011719 A 1.50015 1.50015 0 0 0 29.037109 33.373047 L 30.228516 31.707031 C 32.143691 32.338792 34.340709 31.738761 35.550781 29.990234 L 39 25.009766 L 39 34.5 C 39 37.003499 37.003499 39 34.5 39 A 1.50015 1.50015 0 1 0 34.5 42 C 38.624501 42 42 38.624501 42 34.5 L 42 13.5 C 42 9.3754991 38.624501 6 34.5 6 L 13.5 6 z M 38.080078 10.787109 C 38.65021 11.541003 39 12.472012 39 13.5 L 39 17.941406 C 37.605609 17.155635 36.878123 16.351012 36.486328 15.734375 C 36.232065 15.334197 36.130389 15.026511 36.072266 14.804688 L 38.080078 10.787109 z M 34.507812 17.933594 C 35.270862 18.914237 36.540084 19.880326 38.28125 20.777344 L 33.083984 28.283203 C 32.529171 29.084895 31.479953 29.23765 30.703125 28.662109 A 1.50015 1.50015 0 0 0 30.626953 28.601562 C 30.028013 28.096857 29.83848 27.276166 30.191406 26.570312 L 34.507812 17.933594 z M 7.4765625 20.287109 A 1.50015 1.50015 0 0 0 6 21.808594 L 6 34.5 C 6 38.624501 9.3754991 42 13.5 42 L 27.53125 42 A 1.50015 1.50015 0 1 0 27.53125 39 L 13.5 39 C 10.996501 39 9 37.003499 9 34.5 L 9 21.808594 A 1.50015 1.50015 0 0 0 7.4765625 20.287109 z"/></svg>