<?xml version="1.0" encoding="iso-8859-1"?>
<!-- Uploaded to: SVG Repo, www.svgrepo.com, Generator: SVG Repo Mixer Tools -->
<svg fill="#000000" height="800px" width="800px" version="1.1" id="Layer_1" xmlns="http://www.w3.org/2000/svg" xmlns:xlink="http://www.w3.org/1999/xlink" 
	 viewBox="0 0 512 512" xml:space="preserve">
<g>
	<g>
		<path d="M114.939,1.306v0.12C51.096,4.172,0,56.963,0,121.469v269.061c0,66.258,53.905,120.163,120.163,120.163
			c61.128,0,111.739-45.88,119.211-105.012h158.954L512,292.01V1.306H114.939z M208.98,390.531
			c0,48.973-39.843,88.816-88.816,88.816s-88.816-39.843-88.816-88.816V202.323c21.993,24.138,53.666,39.31,88.816,39.31
			c35.15,0,66.823-15.172,88.816-39.31V390.531z M120.163,210.286c-48.973,0-88.816-39.843-88.816-88.816
			s39.843-88.816,88.816-88.816s88.816,39.843,88.816,88.816S169.137,210.286,120.163,210.286z M407.51,352.169v-50.977h50.977
			L407.51,352.169z M480.653,269.845h-104.49v104.49H240.327V121.469c0-35.15-15.172-66.823-39.31-88.816h279.637V269.845z"/>
	</g>
</g>
<g>
	<g>
		<path d="M120.163,74.449c-25.927,0-47.02,21.093-47.02,47.02c0,25.927,21.093,47.02,47.02,47.02s47.02-21.093,47.02-47.02
			C167.184,95.542,146.09,74.449,120.163,74.449z M120.163,137.143c-8.642,0-15.673-7.031-15.673-15.673
			c0-8.642,7.031-15.673,15.673-15.673s15.673,7.031,15.673,15.673C135.837,130.112,128.806,137.143,120.163,137.143z"/>
	</g>
</g>
</svg>